<svg width="40" height="40" viewBox="0 0 40 40" fill="none" xmlns="http://www.w3.org/2000/svg">
<path d="M36.6668 20.0001C36.6697 22.1953 36.2374 24.3694 35.3951 26.3966C34.5528 28.4238 33.317 30.264 31.7593 31.8109C30.2144 33.3531 28.3807 34.5758 26.363 35.409C24.3453 36.2422 22.1831 36.6695 20.0002 36.6667C10.7952 36.6667 3.33351 29.2051 3.33351 20.0001C3.32768 15.7265 4.96924 11.6152 7.91685 8.52089C9.47213 6.87972 11.3459 5.57317 13.4236 4.68121C15.5013 3.78924 17.7391 3.33061 20.0002 3.33339C22.1831 3.33056 24.3453 3.75796 26.363 4.59115C28.3807 5.42434 30.2144 6.64699 31.7593 8.18922C33.317 9.73608 34.5528 11.5763 35.3951 13.6035C36.2374 15.6307 36.6697 17.8048 36.6668 20.0001Z" stroke="white" stroke-width="4" stroke-linecap="round" stroke-linejoin="round"/>
<path d="M36.6667 20.0001C34.2351 20.0001 27.5267 19.0834 21.5226 21.7192C15.0001 24.5834 10.2776 29.0259 8.21924 31.7892" stroke="white" stroke-width="4" stroke-linecap="round" stroke-linejoin="round"/>
<path d="M13.75 4.54504C16.3583 6.95254 22.05 13.0817 24.1667 19.1667C26.2833 25.2517 27.0667 32.7334 27.55 34.8625" stroke="white" stroke-width="4" stroke-linecap="round" stroke-linejoin="round"/>
<path d="M3.46191 17.9167C6.61025 18.1067 14.9444 18.2776 20.2777 16.0001C25.6111 13.7226 30.2002 9.53339 31.7744 8.20422M4.58358 26.3442C6.05217 29.8991 8.70083 32.8394 12.0836 34.6701" stroke="white" stroke-width="4" stroke-linecap="round" stroke-linejoin="round"/>
<path d="M3.33351 20.0001C3.32768 15.7265 4.96924 11.6152 7.91685 8.52089C9.47213 6.87972 11.3459 5.57317 13.4236 4.6812C15.5013 3.78924 17.7391 3.33061 20.0002 3.33339M26.6668 4.72005C28.5649 5.5505 30.2918 6.72692 31.7593 8.18922C33.317 9.73607 34.5528 11.5763 35.3951 13.6035C36.2374 15.6307 36.6697 17.8048 36.6668 20.0001C36.6668 22.0517 36.296 24.0176 35.6168 25.8334M20.0002 36.6667C22.1831 36.6695 24.3453 36.2422 26.363 35.409C28.3807 34.5758 30.2144 33.3531 31.7593 31.8109" stroke="white" stroke-width="4" stroke-linecap="round" stroke-linejoin="round"/>
</svg>
