<svg width="30" height="30" viewBox="0 0 30 30" fill="none" xmlns="http://www.w3.org/2000/svg">
<path d="M20 10.5L8.90625 21.625C8.65625 21.875 8.35917 22 8.015 22C7.67167 22 7.375 21.875 7.125 21.625C6.875 21.375 6.75 21.0779 6.75 20.7337C6.75 20.3904 6.875 20.0938 7.125 19.8438L18.25 8.75H8.75C8.39583 8.75 8.09875 8.63042 7.85875 8.39125C7.61958 8.15125 7.5 7.85417 7.5 7.5C7.5 7.14583 7.61958 6.84875 7.85875 6.60875C8.09875 6.36958 8.39583 6.25 8.75 6.25H21.25C21.6042 6.25 21.9008 6.36958 22.14 6.60875C22.38 6.84875 22.5 7.14583 22.5 7.5V20C22.5 20.3542 22.38 20.6508 22.14 20.89C21.9008 21.13 21.6042 21.25 21.25 21.25C20.8958 21.25 20.5992 21.13 20.36 20.89C20.12 20.6508 20 20.3542 20 20V10.5Z" fill="#85586F"/>
</svg>
