<svg width="30" height="30" viewBox="0 0 30 30" fill="none" xmlns="http://www.w3.org/2000/svg">
<path d="M29.2266 0.77338C28.8913 0.441997 28.4745 0.204979 28.0183 0.0862823C27.5621 -0.0324142 27.0827 -0.0285822 26.6284 0.0973911L1.93293 7.06935C1.41393 7.2154 0.951806 7.51621 0.608186 7.93165C0.264566 8.34709 0.0557905 8.85742 0.00970475 9.39456C-0.036381 9.9317 0.0824142 10.4701 0.350246 10.938C0.618077 11.4059 1.02221 11.781 1.50875 12.0133L12.6966 17.302L17.9857 28.4889C18.1966 28.943 18.5337 29.3269 18.9568 29.5948C19.3798 29.8627 19.871 30.0033 20.3717 29.9999H20.5971C21.136 29.9573 21.6489 29.75 22.0662 29.4063C22.4835 29.0625 22.785 28.5988 22.9301 28.078L29.9026 3.3713C30.0286 2.91708 30.0324 2.43767 29.9137 1.9815C29.795 1.52533 29.558 1.10859 29.2266 0.77338ZM20.2524 25.838L15.7985 16.4404L21.008 11.2446C21.3068 10.9458 21.4747 10.5405 21.4747 10.1179C21.4747 9.69535 21.3068 9.29008 21.008 8.99128C20.7092 8.69247 20.3039 8.5246 19.8812 8.5246C19.4586 8.5246 19.0533 8.69247 18.7545 8.99128L13.5582 14.2004L4.1599 9.74679L26.5754 3.42431L20.2524 25.838Z" fill="white"/>
</svg>
