<svg width="40" height="40" viewBox="0 0 40 40" fill="none" xmlns="http://www.w3.org/2000/svg">
<path d="M15 31.6667C7.83333 34 7.83333 27.5 5 26.6667M25 35V29.1667C25 27.5 25.1667 26.8334 24.1667 25.8334C28.8333 25.3334 33.3333 23.5 33.3333 15.8334C33.3313 13.8416 32.5542 11.9289 31.1667 10.5C31.8174 8.76998 31.7575 6.85275 31 5.16671C31 5.16671 29.1667 4.66671 25.1667 7.33337C21.7787 6.45102 18.2213 6.45102 14.8333 7.33337C10.8333 4.66671 9 5.16671 9 5.16671C8.24247 6.85275 8.18256 8.76998 8.83333 10.5C7.44576 11.9289 6.6687 13.8416 6.66667 15.8334C6.66667 23.5 11.1667 25.3334 15.8333 25.8334C14.8333 26.8334 14.8333 27.8334 15 29.1667V35" stroke="white" stroke-width="2" stroke-linecap="round" stroke-linejoin="round"/>
</svg>
