<svg width="38" height="38" viewBox="0 0 38 38" fill="none" xmlns="http://www.w3.org/2000/svg">
<path d="M35.6668 19.0001C35.6697 21.1953 35.2374 23.3694 34.3951 25.3966C33.5528 27.4238 32.317 29.264 30.7593 30.8109C29.2144 32.3531 27.3807 33.5758 25.363 34.409C23.3453 35.2422 21.1831 35.6695 19.0002 35.6667C9.79518 35.6667 2.33351 28.2051 2.33351 19.0001C2.32768 14.7265 3.96924 10.6152 6.91685 7.52089C8.47213 5.87972 10.3459 4.57317 12.4236 3.68121C14.5013 2.78924 16.7391 2.33061 19.0002 2.33339C21.1831 2.33056 23.3453 2.75796 25.363 3.59115C27.3807 4.42434 29.2144 5.64699 30.7593 7.18922C32.317 8.73608 33.5528 10.5763 34.3951 12.6035C35.2374 14.6307 35.6697 16.8048 35.6668 19.0001Z" stroke="white" stroke-width="4" stroke-linecap="round" stroke-linejoin="round"/>
<path d="M35.6667 19.0001C33.2351 19.0001 26.5267 18.0834 20.5226 20.7192C14.0001 23.5834 9.27757 28.0259 7.21924 30.7892" stroke="white" stroke-width="4" stroke-linecap="round" stroke-linejoin="round"/>
<path d="M12.75 3.54504C15.3583 5.95254 21.05 12.0817 23.1667 18.1667C25.2833 24.2517 26.0667 31.7334 26.55 33.8625" stroke="white" stroke-width="4" stroke-linecap="round" stroke-linejoin="round"/>
<path d="M2.46191 16.9167C5.61025 17.1067 13.9444 17.2776 19.2777 15.0001C24.6111 12.7226 29.2002 8.53339 30.7744 7.20422M3.58358 25.3442C5.05217 28.8991 7.70083 31.8394 11.0836 33.6701" stroke="white" stroke-width="4" stroke-linecap="round" stroke-linejoin="round"/>
<path d="M2.33351 19.0001C2.32768 14.7265 3.96924 10.6152 6.91685 7.52089C8.47213 5.87972 10.3459 4.57317 12.4236 3.6812C14.5013 2.78924 16.7391 2.33061 19.0002 2.33339M25.6668 3.72005C27.5649 4.5505 29.2918 5.72692 30.7593 7.18922C32.317 8.73607 33.5528 10.5763 34.3951 12.6035C35.2374 14.6307 35.6697 16.8048 35.6668 19.0001C35.6668 21.0517 35.296 23.0176 34.6168 24.8334M19.0002 35.6667C21.1831 35.6695 23.3453 35.2422 25.363 34.409C27.3807 33.5758 29.2144 32.3531 30.7593 30.8109" stroke="white" stroke-width="4" stroke-linecap="round" stroke-linejoin="round"/>
</svg>
